HIERARCHY
ROOT Hips
{
	OFFSET 0.00000 0.00000 0.00000
	CHANNELS 6 Xposition Yposition Zposition Zrotation Yrotation Xrotation 
	JOINT LHipJoint
	{
		OFFSET 0 0 0
		CHANNELS 3 Zrotation Yrotation Xrotation
		JOINT LeftUpLeg
		{
			OFFSET 1.62067 -1.77917 0.70989
			CHANNELS 3 Zrotation Yrotation Xrotation
			JOINT LeftLeg
			{
				OFFSET 2.34532 -6.44371 0.00000
				CHANNELS 3 Zrotation Yrotation Xrotation
				JOINT LeftFoot
				{
					OFFSET 2.74224 -7.53425 0.00000
					CHANNELS 3 Zrotation Yrotation Xrotation
					JOINT LeftToeBase
					{
						OFFSET 0.17032 -0.46794 2.08086
						CHANNELS 3 Zrotation Yrotation Xrotation
						End Site
						{
							OFFSET 0.00000 -0.00000 1.07476
						}
					}
				}
			}
		}
	}
	JOINT RHipJoint
	{
		OFFSET 0 0 0
		CHANNELS 3 Zrotation Yrotation Xrotation
		JOINT RightUpLeg
		{
			OFFSET -1.55811 -1.77917 0.70989
			CHANNELS 3 Zrotation Yrotation Xrotation
			JOINT RightLeg
			{
				OFFSET -2.33243 -6.40830 0.00000
				CHANNELS 3 Zrotation Yrotation Xrotation
				JOINT RightFoot
				{
					OFFSET -2.78798 -7.65993 0.00000
					CHANNELS 3 Zrotation Yrotation Xrotation
					JOINT RightToeBase
					{
						OFFSET -0.22707 -0.62388 2.04059
						CHANNELS 3 Zrotation Yrotation Xrotation
						End Site
						{
							OFFSET -0.00000 -0.00000 1.07030
						}
					}
				}
			}
		}
	}
	JOINT LowerBack
	{
		OFFSET 0 0 0
		CHANNELS 3 Zrotation Yrotation Xrotation
		JOINT Spine
		{
			OFFSET 0.02203 1.91565 0.07161
			CHANNELS 3 Zrotation Yrotation Xrotation
			JOINT Spine1
			{
				OFFSET 0.01740 1.90525 0.11636
				CHANNELS 3 Zrotation Yrotation Xrotation
				JOINT Neck
				{
					OFFSET 0 0 0
					CHANNELS 3 Zrotation Yrotation Xrotation
					JOINT Neck1
					{
						OFFSET -0.10841 1.83566 0.05067
						CHANNELS 3 Zrotation Yrotation Xrotation
						JOINT Head
						{
							OFFSET 0.06601 1.74760 -0.50505
							CHANNELS 3 Zrotation Yrotation Xrotation
							End Site
							{
								OFFSET 0.03102 1.85215 -0.17697
							}
						}
					}
				}
				JOINT LeftShoulder
				{
					OFFSET 0 0 0
					CHANNELS 3 Zrotation Yrotation Xrotation
					JOINT LeftArm
					{
						OFFSET 2.87059 1.35470 0.16111
						CHANNELS 3 Zrotation Yrotation Xrotation
						JOINT LeftForeArm
						{
							OFFSET 5.43592 -0.00000 0.00000
							CHANNELS 3 Zrotation Yrotation Xrotation
							JOINT LeftHand
							{
								OFFSET 3.25460 -0.00000 0.00000
								CHANNELS 3 Zrotation Yrotation Xrotation
								JOINT LeftFingerBase
								{
									OFFSET 0 0 0
									CHANNELS 3 Zrotation Yrotation Xrotation
									JOINT LeftHandIndex1
									{
										OFFSET 0.49824 -0.00000 0.00000
										CHANNELS 3 Zrotation Yrotation Xrotation
										End Site
										{
											OFFSET 0.40170 -0.00000 0.00000
										}
									}
								}
								JOINT LThumb
								{
									OFFSET 0 0 0
									CHANNELS 3 Zrotation Yrotation Xrotation
									End Site
									{
										OFFSET 0.40783 -0.00000 0.40783
									}
								}
							}
						}
					}
				}
				JOINT RightShoulder
				{
					OFFSET 0 0 0
					CHANNELS 3 Zrotation Yrotation Xrotation
					JOINT RightArm
					{
						OFFSET -2.86643 1.23488 0.45957
						CHANNELS 3 Zrotation Yrotation Xrotation
						JOINT RightForeArm
						{
							OFFSET -5.33830 -0.00000 0.00000
							CHANNELS 3 Zrotation Yrotation Xrotation
							JOINT RightHand
							{
								OFFSET -3.23148 -0.00000 0.00000
								CHANNELS 3 Zrotation Yrotation Xrotation
								JOINT RightFingerBase
								{
									OFFSET 0 0 0
									CHANNELS 3 Zrotation Yrotation Xrotation
									JOINT RightHandIndex1
									{
										OFFSET -0.46364 -0.00000 0.00000
										CHANNELS 3 Zrotation Yrotation Xrotation
										End Site
										{
											OFFSET -0.37380 -0.00000 0.00000
										}
									}
								}
								JOINT RThumb
								{
									OFFSET 0 0 0
									CHANNELS 3 Zrotation Yrotation Xrotation
									End Site
									{
										OFFSET -0.37951 -0.00000 0.37951
									}
								}
							}
						}
					}
				}
			}
		}
	}
}
MOTION
Frames: 11
Frame Time: .0083333
3.2214 17.3849 -45.2819 0 0 0 0 0 0 -21 0 0 0 0 0 0 0 0 0 0 0 0 0 0 21 0 0 0 0 0 0 0 0 0 0 0 0 0 0 0 0 0 0 0 0 0 0 -16 0 0 21 0 0 11 0 0 0 -8 0 0 0 0 0 0 0 0 0 0 0 0 0 0 0 0 0 0 0 0 8 0 0 0 0 0 0 0 0 0 0 0 0 0 0 0 0 0
3.2214 17.3849 -45.2819 1.7233 -1.1895 13.5554 0.0000 0.0000 0.0000 -28.3816 -7.7236 -4.9097 0.8071 5.7335 16.0130 1.4459 2.7789 -23.8638 0.0678 1.6801 4.6224 0.0000 0.0000 0.0000 7.9779 22.0543 -42.6027 -2.0179 -8.9033 25.4934 0.2251 -12.4636 -14.3896 -0.1745 2.6911 -7.4198 -2.0927 -2.3177 -4.3540 1.0887 -3.0206 -2.5224 2.1560 -1.4876 0.0133 -6.9435 -2.7938 -17.0287 4.5424 -3.0267 19.1419 2.3171 -1.4401 8.9906 -0.0000 0.0000 0.0000 -85.9477 -0.9543 44.6859 17.7445 -27.8288 -4.4293 -0.0000 0.0000 -9.3558 35.8630 -21.2163 -14.6605 -7.1250 0.0000 -0.0000 4.4732 4.4516 -4.1254 -0.0000 0.0000 0.0000 84.3050 -9.0909 33.1688 -17.5680 27.6005 -4.3472 0.0000 0.0000 1.3675 -34.2864 -35.8588 21.7715 7.1250 -0.0000 -0.0000 -1.2689 -71.1555 0.7911
3.2075 17.3849 -45.1919 1.8034 -1.2570 13.4860 0.0000 0.0000 0.0000 -28.4817 -7.2570 -4.1481 0.7267 5.4467 15.1871 1.4208 2.7017 -23.6318 0.0481 1.4156 3.8932 0.0000 0.0000 0.0000 7.3411 22.8585 -42.2859 -1.8823 -8.6164 24.6025 0.2976 -12.9821 -14.0639 -0.2896 3.4607 -9.5642 -2.2685 -2.0983 -3.8169 0.9995 -2.7339 -2.6906 2.2016 -1.3349 -0.4705 -6.7528 -2.9961 -17.3400 4.4551 -3.3240 19.3809 2.2165 -1.5719 9.1435 -0.0000 -0.0000 0.0000 -85.7935 -0.9670 45.2220 17.7823 -27.8775 -4.4470 -0.0000 0.0000 -9.4281 36.2192 -21.5023 -15.0270 -7.1250 0.0000 -0.0000 4.6395 4.0260 -4.3168 -0.0000 -0.0000 0.0000 84.5493 -9.5058 32.4155 -17.5756 27.6104 -4.3508 0.0000 0.0000 1.5279 -34.3914 -38.1855 22.9361 7.1250 -0.0000 -0.0000 0.5016 -73.6043 -0.3396
3.1990 17.3797 -45.1166 1.8735 -1.3513 13.8044 0.0000 0.0000 0.0000 -28.5532 -7.1759 -3.9115 0.6707 5.2372 14.5863 1.3921 2.8124 -23.4573 0.0447 1.3648 3.7532 0.0000 0.0000 0.0000 6.7467 23.3702 -42.5419 -1.7689 -8.3672 23.8349 0.3661 -13.3744 -13.5572 -0.3816 3.9670 -10.9840 -2.3201 -2.0698 -4.0228 0.9706 -2.6925 -3.0664 2.2037 -1.3064 -0.7437 -6.8802 -2.9380 -16.2690 4.5442 -3.2996 19.1672 2.2769 -1.5730 8.8776 -0.0000 0.0000 0.0000 -85.7784 -0.5075 45.0629 17.8288 -27.9374 -4.4687 -0.0000 0.0000 -9.2757 36.4526 -21.4366 -15.1078 -7.1250 0.0000 -0.0000 4.7943 4.0394 -4.4606 -0.0000 0.0000 0.0000 84.5476 -10.1669 32.3931 -17.5828 27.6196 -4.3541 0.0000 0.0000 1.4768 -34.4514 -37.2207 22.5371 7.1250 -0.0000 -0.0000 -0.4790 -72.6299 0.3142
3.1866 17.3788 -45.0293 1.9005 -1.0721 13.7678 0.0000 0.0000 0.0000 -28.5126 -7.0156 -3.2095 0.6143 5.0162 13.9547 1.3750 2.7195 -23.2780 0.0223 0.9640 2.6497 0.0000 0.0000 0.0000 6.4077 23.6695 -42.2642 -1.6654 -8.1312 23.1133 0.4424 -13.9179 -13.2111 -0.3935 4.0277 -11.1545 -2.3107 -2.1621 -4.1884 0.9575 -2.8130 -3.1885 2.1767 -1.3655 -0.7716 -6.9419 -2.9213 -15.3295 4.6286 -3.3408 18.9630 2.3158 -1.5991 8.6426 -0.0000 -0.0000 0.0000 -85.7360 -0.2162 44.7706 17.8379 -27.9491 -4.4730 -0.0000 0.0000 -9.0256 36.4383 -21.4343 -15.0988 -7.1250 0.0000 -0.0000 4.7859 4.0459 -4.4522 -0.0000 -0.0000 0.0000 84.5698 -10.6283 32.3539 -17.6066 27.6506 -4.3652 0.0000 0.0000 1.6144 -34.4360 -37.4501 22.6320 7.1250 -0.0000 -0.0000 -0.2549 -72.8621 0.1685
3.1713 17.3584 -44.9442 1.9154 -0.6797 14.0993 0.0000 0.0000 0.0000 -28.3601 -6.9944 -3.1019 0.5901 4.9182 13.6754 1.3776 2.3839 -23.1448 0.0293 1.1048 3.0371 0.0000 0.0000 0.0000 6.0998 23.7475 -42.4632 -1.5575 -7.8761 22.3384 0.5964 -14.7061 -11.6383 -0.4195 4.1570 -11.5187 -2.1852 -2.3029 -4.3155 0.9695 -3.0002 -2.9270 2.0988 -1.4679 -0.4269 -6.9353 -3.0349 -17.2718 4.6799 -3.3915 19.5975 2.3180 -1.5947 9.2177 -0.0000 0.0000 0.0000 -85.6783 -1.2045 44.5011 17.7730 -27.8655 -4.4426 -0.0000 0.0000 -9.1807 36.4248 -21.8562 -15.3611 -7.1250 0.0000 -0.0000 4.6994 3.5606 -4.4136 -0.0000 0.0000 0.0000 84.5463 -9.8374 32.4128 -17.6016 27.6440 -4.3628 0.0000 0.0000 1.7033 -34.4771 -37.6963 22.7773 7.1250 -0.0000 -0.0000 -0.1059 -73.1305 0.0706
3.1635 17.3552 -44.8701 1.7867 -1.2741 14.1522 0.0000 0.0000 0.0000 -28.3839 -6.6748 -2.8697 0.5673 4.8238 13.4068 1.3667 2.6710 -23.1887 0.0296 1.1107 3.0536 0.0000 0.0000 0.0000 5.8095 24.3841 -42.3413 -1.4659 -7.6516 21.6607 0.4232 -13.3696 -12.3304 -0.2722 3.3557 -9.2707 -2.2707 -2.0845 -4.5565 1.0188 -2.7028 -3.2313 2.2084 -1.3121 -0.6155 -7.0030 -2.8924 -15.4360 4.7079 -3.2963 19.0028 2.3580 -1.5732 8.6749 -0.0000 0.0000 0.0000 -85.7486 -0.5245 44.4785 17.8478 -27.9619 -4.4777 -0.0000 0.0000 -9.3225 36.8287 -22.3097 -15.8696 -7.1250 0.0000 -0.0000 4.8589 2.9232 -4.6216 -0.0000 0.0000 0.0000 84.4040 -10.6851 32.4736 -17.6788 27.7439 -4.3987 0.0000 0.0000 1.6703 -34.8223 -38.1443 23.2498 7.1250 -0.0000 -0.0000 -0.2933 -73.7108 0.1992
3.1434 17.3306 -44.7784 1.7953 -1.1808 14.2709 0.0000 0.0000 0.0000 -28.3169 -6.6152 -2.6032 0.5543 4.7692 13.2516 1.3518 2.6641 -23.0661 0.0309 1.1345 3.1190 0.0000 0.0000 0.0000 6.1434 24.0858 -42.3438 -1.3855 -7.4476 21.0483 0.5677 -13.9736 -10.0717 -0.8148 5.7601 -16.0900 -2.2267 -2.0945 -4.8026 0.9351 -2.7140 -3.5018 2.0946 -1.3147 -0.7624 -7.0123 -2.8508 -14.1450 4.8254 -3.3424 18.6120 2.3997 -1.5989 8.3140 -0.0000 -0.0000 0.0000 -85.5808 -0.0154 44.3174 17.8123 -27.9162 -4.4610 -0.0000 0.0000 -9.0482 37.3010 -22.8214 -16.4614 -7.1250 0.0000 -0.0000 5.0442 2.1951 -4.8664 -0.0000 -0.0000 0.0000 84.5886 -11.3380 32.2808 -17.6310 27.6821 -4.3765 0.0000 0.0000 1.7208 -35.1726 -37.5182 23.2278 7.1250 -0.0000 -0.0000 -1.4679 -73.1836 0.9805
3.1235 17.3183 -44.6834 1.8113 -1.1154 14.3227 0.0000 0.0000 0.0000 -28.2614 -6.3067 -2.1188 0.5160 4.6041 12.7827 1.3369 2.4539 -22.8486 0.0186 0.8798 2.4181 0.0000 0.0000 0.0000 6.2557 24.0062 -42.4096 -1.3619 -7.3865 20.8655 0.5892 -14.0183 -9.4410 -1.0011 6.3671 -17.8532 -2.1427 -2.1000 -3.6586 0.9975 -2.7455 -3.0524 2.1440 -1.3332 -0.9360 -7.1981 -3.1899 -18.8268 4.8483 -3.4823 20.3726 2.4058 -1.6217 9.7888 0.0000 0.0000 0.0000 -85.7300 -1.8138 43.8028 17.6048 -27.6482 -4.3643 -0.0000 0.0000 -8.7654 37.5382 -22.6516 -16.4849 -7.1250 0.0000 -0.0000 5.2201 2.3229 -5.0254 0.0000 0.0000 0.0000 84.4997 -9.6509 32.1904 -17.3797 27.3556 -4.2603 0.0000 0.0000 1.6284 -35.7620 -35.6658 22.7788 7.1250 -0.0000 -0.0000 -3.8238 -71.4376 2.4087
3.1057 17.3218 -44.5851 1.8858 -0.9998 14.3664 0.0000 0.0000 0.0000 -28.2515 -5.9605 -1.5636 0.4772 4.4303 12.2904 1.3279 2.0741 -22.6063 0.0130 0.7357 2.0220 0.0000 0.0000 0.0000 5.9569 24.2379 -42.3129 -1.3598 -7.3811 20.8494 0.5609 -13.9319 -10.1566 -0.7737 5.6163 -15.6751 -2.2505 -2.1292 -4.7203 0.9453 -2.7564 -2.7687 2.1015 -1.3514 -0.0498 -7.3573 -3.1545 -17.7617 5.1133 -3.5104 19.7711 2.5216 -1.6281 9.3916 -0.0000 0.0000 0.0000 -85.6681 -2.1002 43.5292 17.4992 -27.5112 -4.3154 -0.0000 0.0000 -8.5250 36.7531 -22.4833 -15.9391 -7.1250 0.0000 -0.0000 4.7799 2.7437 -4.5618 -0.0000 0.0000 0.0000 84.5980 -9.4117 31.9895 -17.2450 27.1796 -4.1986 0.0000 0.0000 1.7750 -35.9201 -35.4163 22.7731 7.1250 -0.0000 -0.0000 -4.2394 -71.2248 2.6508
3.0822 17.3428 -44.4852 1.9997 -0.4966 14.3570 0.0000 0.0000 0.0000 -28.1340 -5.7100 -1.0423 0.4520 4.3133 11.9599 1.3088 1.7179 -22.2961 0.0002 0.0842 0.2313 0.0000 0.0000 0.0000 5.1070 24.9583 -41.9211 -1.3855 -7.4478 21.0489 0.3911 -13.3651 -13.0279 -0.1430 2.4370 -6.7149 -2.5040 -2.2932 -4.3249 1.0229 -2.9797 -3.3586 2.3439 -1.4426 -0.8491 -7.4066 -3.1008 -16.4430 5.0395 -3.5095 19.8537 2.5133 -1.6593 9.1783 0.0000 0.0000 0.0000 -85.7658 -1.0723 43.2134 17.5516 -27.5792 -4.3396 -0.0000 0.0000 -8.5135 35.9319 -22.2363 -15.3367 -7.1250 0.0000 -0.0000 4.3291 3.2564 -4.0880 0.0000 0.0000 0.0000 84.4483 -10.5220 32.0671 -17.2500 27.1862 -4.2009 0.0000 0.0000 1.8322 -34.7371 -38.1313 23.1780 7.1250 -0.0000 -0.0000 -0.1555 -73.6679 0.1055
